<svg width="46" height="46" fill="none" xmlns="http://www.w3.org/2000/svg"><path d="M23.078 15.575c-4.131 0-7.503 3.372-7.503 7.504 0 4.131 3.372 7.503 7.503 7.503 4.132 0 7.503-3.372 7.503-7.503 0-4.132-3.371-7.504-7.503-7.504zm22.504 7.504c0-3.108.028-6.186-.147-9.288-.174-3.602-.996-6.8-3.63-9.434-2.64-2.64-5.831-3.456-9.434-3.63C29.264.552 26.185.58 23.084.58c-3.107 0-6.186-.028-9.287.147-3.603.174-6.8.996-9.434 3.63-2.64 2.64-3.456 5.832-3.63 9.434-.175 3.107-.147 6.186-.147 9.288 0 3.101-.028 6.186.146 9.287.175 3.603.997 6.8 3.63 9.434 2.64 2.64 5.832 3.456 9.434 3.63 3.108.175 6.186.147 9.288.147 3.107 0 6.186.028 9.287-.146 3.602-.175 6.8-.997 9.434-3.631 2.64-2.64 3.456-5.831 3.63-9.434.18-3.101.147-6.18.147-9.287zM23.078 34.623A11.528 11.528 0 0111.534 23.08a11.528 11.528 0 0111.544-11.545A11.528 11.528 0 0134.623 23.08a11.528 11.528 0 01-11.545 11.544zm12.018-20.866a2.693 2.693 0 01-2.697-2.696 2.693 2.693 0 012.697-2.696 2.693 2.693 0 012.696 2.696 2.694 2.694 0 01-2.697 2.696z" fill="#000"/></svg>