<svg width="50" height="50" fill="none" xmlns="http://www.w3.org/2000/svg"><path fill-rule="evenodd" clip-rule="evenodd" d="M50 25c0 13.806-11.194 25-25 25S0 38.806 0 25 11.194 0 25 0s25 11.194 25 25zm-24.104-6.544c-2.431 1.01-7.292 3.104-14.58 6.28-1.183.47-1.804.93-1.86 1.38-.096.763.859 1.063 2.154 1.47.178.056.36.112.548.174 1.277.415 2.994.9 3.886.92.81.016 1.714-.317 2.712-1 6.809-4.599 10.323-6.922 10.544-6.972.156-.035.373-.08.519.05.146.13.131.375.116.442-.095.402-3.833 3.88-5.77 5.68a58.62 58.62 0 00-1.12 1.05c-.195.201-.395.395-.587.58-1.187 1.142-2.075 2 .05 3.4 1.021.673 1.838 1.23 2.652 1.784.89.606 1.777 1.21 2.927 1.964.292.192.571.39.844.584 1.036.74 1.967 1.402 3.117 1.298.667-.063 1.358-.69 1.708-2.563.827-4.43 2.456-14.02 2.834-17.975a4.398 4.398 0 00-.042-.983 1.054 1.054 0 00-.358-.677c-.298-.244-.76-.296-.97-.292-.939.017-2.38.519-9.324 3.406z" fill="#000"/></svg>