<svg width="23" height="22" fill="none" xmlns="http://www.w3.org/2000/svg"><path d="M17 8.938h-1.375a2.064 2.064 0 00-2.063-2.063V5.5A3.442 3.442 0 0117 8.938z" fill="#fff"/><path d="M19.75 8.938h-1.375a4.818 4.818 0 00-4.813-4.813V2.75a6.194 6.194 0 016.188 6.188zm-5.271 5.831l1.54-1.54a1.489 1.489 0 011.607-.33l1.875.75a1.49 1.49 0 01.936 1.384v3.41a1.488 1.488 0 01-1.57 1.492C5.721 19.117 3.066 7.982 2.573 3.718a1.486 1.486 0 011.48-1.655h3.35a1.49 1.49 0 011.384.936l.75 1.875a1.49 1.49 0 01-.33 1.607l-1.54 1.54s.854 6.003 6.812 6.748z" fill="#fff"/></svg>